HIERARCHY
ROOT Hips
{
	OFFSET -0.001795 -0.223333 0.028219
	CHANNELS 6 Xposition Yposition Zposition Zrotation Yrotation Xrotation 
	JOINT LeftUpLeg
	{
		OFFSET 0.069520 -0.091406 -0.006815
		CHANNELS 3 Zrotation Yrotation Xrotation
		JOINT LeftLeg
		{
			OFFSET 0.034277 -0.375199 -0.004496
			CHANNELS 3 Zrotation Yrotation Xrotation
			JOINT LeftFoot
			{
				OFFSET -0.013596 -0.397961 -0.043693
				CHANNELS 3 Zrotation Yrotation Xrotation
				JOINT LeftToe
				{
					OFFSET 0.026358 -0.055791 0.119288
					CHANNELS 3 Zrotation Yrotation Xrotation
					End Site
					{
						OFFSET 0.000000 0.000000 0.000000
					}
				}
			}
		}
	}
	JOINT RightUpLeg
	{
		OFFSET -0.067670 -0.090522 -0.004320
		CHANNELS 3 Zrotation Yrotation Xrotation
		JOINT RightLeg
		{
			OFFSET -0.038290 -0.382569 -0.008850
			CHANNELS 3 Zrotation Yrotation Xrotation
			JOINT RightFoot
			{
				OFFSET 0.015774 -0.398415 -0.042312
				CHANNELS 3 Zrotation Yrotation Xrotation
				JOINT RightToe
				{
					OFFSET -0.025372 -0.048144 0.123348
					CHANNELS 3 Zrotation Yrotation Xrotation
					End Site
					{
						OFFSET 0.000000 0.000000 0.000000
					}
				}
			}
		}
	}
	JOINT Spine
	{
		OFFSET -0.002533 0.108963 -0.026696
		CHANNELS 3 Zrotation Yrotation Xrotation
		JOINT Spine1
		{
			OFFSET 0.005487 0.135180 0.001092
			CHANNELS 3 Zrotation Yrotation Xrotation
			JOINT Spine2
			{
				OFFSET 0.001457 0.052922 0.025425
				CHANNELS 3 Zrotation Yrotation Xrotation
				JOINT Neck
				{
					OFFSET -0.002778 0.213870 -0.042857
					CHANNELS 3 Zrotation Yrotation Xrotation
					JOINT Head
					{
						OFFSET 0.005152 0.064970 0.051349
						CHANNELS 3 Zrotation Yrotation Xrotation
						End Site
						{
							OFFSET 0.000000 0.000000 0.000000
						}
					}
				}
				JOINT LeftShoulder
				{
					OFFSET 0.078845 0.121749 -0.034090
					CHANNELS 3 Zrotation Yrotation Xrotation
					JOINT LeftArm
					{
						OFFSET 0.090977 0.030469 -0.008868
						CHANNELS 3 Zrotation Yrotation Xrotation
						JOINT LeftForeArm
						{
							OFFSET 0.259612 -0.012772 -0.027456
							CHANNELS 3 Zrotation Yrotation Xrotation
							JOINT LeftHand
							{
								OFFSET 0.249234 0.008986 -0.001171
								CHANNELS 3 Zrotation Yrotation Xrotation
								End Site
								{
									OFFSET 0.000000 0.000000 0.000000
								}
							}
						}
					}
				}
				JOINT RightShoulder
				{
					OFFSET -0.081759 0.118833 -0.038615
					CHANNELS 3 Zrotation Yrotation Xrotation
					JOINT RightArm
					{
						OFFSET -0.096012 0.032551 -0.009143
						CHANNELS 3 Zrotation Yrotation Xrotation
						JOINT RightForeArm
						{
							OFFSET -0.253742 -0.013329 -0.021401
							CHANNELS 3 Zrotation Yrotation Xrotation
							JOINT RightHand
							{
								OFFSET -0.255298 0.007772 -0.005559
								CHANNELS 3 Zrotation Yrotation Xrotation
								End Site
								{
									OFFSET 0.000000 0.000000 0.000000
								}
							}
						}
					}
				}
			}
		}
	}
}
MOTION
Frames: 12
Frame Time: 0.050000
0.006509 0.957415 -0.026943 -0.644291 -5.182573 -2.285507 4.991832 0.738827 12.346623 -2.365920 0.486401 -11.677386 2.498312 9.455563 18.364327 0.000000 0.000000 0.000000 -4.008823 -0.341197 8.110133 3.662837 -0.382465 -7.799461 0.411505 -6.977156 18.054526 0.000000 0.000000 0.000000 7.558502 -0.393170 3.864866 -5.849503 2.005613 -22.309842 -0.780872 2.015926 31.259219 5.328718 -1.723271 -26.884280 0.000000 0.000000 0.000000 -1.604180 -6.038993 2.187579 -19.361825 -35.626872 0.631008 118.177961 -49.809525 -69.384537 0.000000 0.000000 0.000000 19.821209 -8.537728 -6.126976 55.388199 2.284268 -7.233854 16.989087 33.141664 6.622627 0.000000 0.000000 0.000000 
0.006797 0.957329 -0.027269 -0.497706 -5.180837 -2.279603 4.850166 0.744911 12.210352 -2.548754 0.487572 -11.553493 2.456765 9.326485 17.994616 0.000000 0.000000 0.000000 -4.420069 -0.297373 8.093732 3.993668 -0.390540 -7.725032 0.340720 -7.186361 18.360432 0.000000 0.000000 0.000000 7.633074 -0.425961 4.157382 -6.189505 2.096257 -22.328333 -0.742056 2.121074 31.111145 5.705042 -1.999840 -26.237113 0.000000 0.000000 0.000000 -2.228510 -5.939189 2.173694 -19.504825 -34.058921 0.456852 113.872140 -48.896171 -64.136134 0.000000 0.000000 0.000000 20.040562 -8.584764 -6.166014 54.933931 2.158132 -7.234229 17.072969 32.948076 6.604183 0.000000 0.000000 0.000000 
0.007038 0.957302 -0.027672 -0.455988 -5.274115 -2.278765 4.812601 0.743684 12.083081 -2.491663 0.484203 -11.391793 2.280932 9.100701 18.246856 0.000000 0.000000 0.000000 -4.666459 -0.269904 8.105274 4.104233 -0.391565 -7.795630 0.553635 -6.903669 18.527025 0.000000 0.000000 0.000000 7.697342 -0.460256 4.469352 -6.333422 2.124314 -22.654814 -0.769036 2.467700 31.131490 5.971215 -2.161379 -25.817853 0.000000 0.000000 0.000000 -2.606096 -5.738301 2.104200 -20.450142 -32.861132 0.431305 107.257421 -49.297791 -58.621333 0.000000 0.000000 0.000000 20.229653 -8.997099 -6.362517 54.595983 2.152070 -7.211206 17.466616 33.110093 6.790595 0.000000 0.000000 0.000000 
0.007127 0.956917 -0.028070 -0.372174 -5.485447 -2.246069 4.796769 0.739535 11.889959 -2.753394 0.490308 -11.250763 2.375951 9.161154 17.971809 0.000000 0.000000 0.000000 -5.024227 -0.218017 7.904498 4.370144 -0.395959 -7.555285 0.428952 -7.133505 18.505852 0.000000 0.000000 0.000000 7.753907 -0.484942 4.690525 -6.492575 2.160713 -22.738238 -0.763270 2.669429 30.978978 6.625657 -2.624669 -25.151267 0.000000 0.000000 0.000000 -2.980123 -5.565450 2.047932 -20.724264 -31.238642 0.264382 99.228854 -49.050295 -51.741366 0.000000 0.000000 0.000000 20.185371 -8.977460 -6.326906 54.501541 2.075238 -7.223520 17.569188 33.131393 6.828704 0.000000 0.000000 0.000000 
0.007135 0.956957 -0.028420 -0.300041 -5.893976 -2.267493 4.858959 0.741353 11.789045 -2.950554 0.495574 -10.938996 2.343660 9.049148 17.900428 0.000000 0.000000 0.000000 -5.182642 -0.180379 7.648088 4.271815 -0.388723 -7.251085 0.630613 -6.861803 18.474737 0.000000 0.000000 0.000000 7.712415 -0.507741 4.950137 -6.550681 2.157076 -23.183057 -0.712489 2.973546 31.137800 6.675831 -2.687868 -24.856264 0.000000 0.000000 0.000000 -3.764967 -5.096828 1.893567 -21.106119 -30.064189 0.131469 89.932571 -48.901169 -44.650211 0.000000 0.000000 0.000000 20.329488 -9.255551 -6.501051 54.162995 2.317779 -7.099611 17.771237 33.122846 6.891753 0.000000 0.000000 0.000000 
0.007123 0.956592 -0.028619 -0.331351 -6.426426 -2.151081 4.906159 0.740659 11.606410 -3.064782 0.501909 -10.710848 2.307249 8.865875 17.577785 0.000000 0.000000 0.000000 -5.328036 -0.139246 7.358745 4.362678 -0.384416 -7.050593 0.752433 -6.696498 18.316155 0.000000 0.000000 0.000000 7.728062 -0.531255 5.164896 -6.523066 2.133091 -23.391428 -0.701585 3.530742 30.947743 7.270996 -3.047739 -24.535047 0.000000 0.000000 0.000000 -4.123128 -4.743605 1.753153 -21.263886 -28.303383 -0.083742 79.659378 -48.320313 -37.388095 0.000000 0.000000 0.000000 20.443130 -9.326472 -6.517123 53.476600 2.335706 -6.994261 17.304667 32.818848 6.677280 0.000000 0.000000 0.000000 
0.007038 0.956643 -0.028516 -0.398320 -7.010153 -2.065028 4.830827 0.764330 11.590362 -2.987320 0.506686 -10.696117 2.400598 8.936817 17.631944 0.000000 0.000000 0.000000 -5.383622 -0.104409 6.991658 4.416740 -0.378490 -6.869039 0.922662 -6.562094 18.466222 0.000000 0.000000 0.000000 7.635314 -0.552515 5.416506 -6.371488 2.072614 -23.877929 -0.652422 3.925144 31.077080 7.210617 -2.970739 -24.764941 0.000000 0.000000 0.000000 -4.632126 -4.211809 1.556850 -21.603966 -26.678029 -0.293461 68.724119 -47.954199 -30.566355 0.000000 0.000000 0.000000 20.641698 -9.371134 -6.576989 52.846769 2.961855 -6.671655 16.548449 32.301037 6.324784 0.000000 0.000000 0.000000 
0.006881 0.956335 -0.028022 -0.404744 -7.630738 -1.866117 4.702936 0.785474 11.481784 -3.048361 0.517696 -10.760121 2.545651 9.078396 17.705791 0.000000 0.000000 0.000000 -5.411059 -0.073169 6.694062 4.415110 -0.368529 -6.932950 1.036863 -6.503401 18.543895 0.000000 0.000000 0.000000 7.562715 -0.542950 5.331251 -6.185924 2.012754 -23.905615 -0.644158 4.504749 30.829495 7.267447 -2.967148 -24.671877 0.000000 0.000000 0.000000 -4.915725 -3.561425 1.289348 -22.559408 -24.501330 -0.520759 58.587287 -47.726918 -24.918526 0.000000 0.000000 0.000000 20.939214 -9.448277 -6.646204 52.262348 3.039203 -6.546712 15.915362 31.850192 6.036264 0.000000 0.000000 0.000000 
0.006617 0.956207 -0.027195 -0.485254 -8.150939 -1.674678 4.630581 0.805718 11.480161 -2.887235 0.518780 -10.767642 2.750923 9.278736 17.488817 0.000000 0.000000 0.000000 -5.355898 -0.054852 6.430418 4.290770 -0.357923 -6.888552 1.403950 -5.947220 18.420917 0.000000 0.000000 0.000000 7.248347 -0.518414 5.182197 -5.929499 1.934793 -24.069277 -0.344240 4.972412 30.855357 7.167007 -2.884451 -24.605574 0.000000 0.000000 0.000000 -5.543739 -3.004212 1.059802 -23.175810 -22.332542 -0.823151 49.899870 -46.546146 -19.950229 0.000000 0.000000 0.000000 21.314095 -9.404538 -6.659961 51.790382 3.496506 -6.317968 14.502376 31.299663 5.524534 0.000000 0.000000 0.000000 
0.006362 0.955962 -0.026320 -0.508572 -8.458360 -1.672305 4.513284 0.829312 11.528689 -2.856648 0.520995 -10.741653 2.802520 9.290209 17.321618 0.000000 0.000000 0.000000 -5.281202 -0.059126 6.545961 4.222243 -0.351558 -6.932981 1.548278 -5.734911 18.346756 0.000000 0.000000 0.000000 6.994622 -0.521110 5.323621 -5.536379 1.828184 -24.254173 -0.351567 5.274734 30.732239 7.010569 -2.740408 -24.748726 0.000000 0.000000 0.000000 -5.904492 -2.314539 0.767099 -24.753773 -20.376104 -1.076141 41.608993 -44.519770 -15.208131 0.000000 0.000000 0.000000 21.546968 -9.567105 -6.780665 51.830861 3.686722 -6.227565 13.185327 30.274400 4.970480 0.000000 0.000000 0.000000 
0.006136 0.955938 -0.025630 -0.578874 -8.628237 -1.562586 4.537143 0.825720 11.460230 -2.991683 0.528344 -10.760873 2.976973 9.541047 17.394750 0.000000 0.000000 0.000000 -5.265758 -0.050016 6.384111 4.200256 -0.350424 -6.675157 1.650606 -5.487726 18.052765 0.000000 0.000000 0.000000 6.715961 -0.528034 5.497217 -5.515818 1.817443 -24.441402 -0.089851 5.263155 30.739145 6.969106 -2.702346 -24.966645 0.000000 0.000000 0.000000 -6.241757 -1.923239 0.611884 -25.888468 -18.717794 -1.351473 34.070523 -39.822507 -10.488875 0.000000 0.000000 0.000000 21.563910 -9.511328 -6.786233 52.069567 4.019366 -6.104332 11.656690 29.137013 4.359041 0.000000 0.000000 0.000000 
0.006040 0.955758 -0.025187 -0.614858 -8.637363 -1.425412 4.401664 0.827354 11.349136 -2.985168 0.529236 -10.807337 3.228089 9.907410 17.363482 0.000000 0.000000 0.000000 -5.221414 -0.047584 6.244110 4.228601 -0.350868 -6.646484 1.606748 -5.531329 17.969730 0.000000 0.000000 0.000000 6.403432 -0.535822 5.694128 -5.280936 1.756203 -24.614951 -0.141813 5.242109 30.687884 6.745526 -2.522854 -25.316578 0.000000 0.000000 0.000000 -6.340316 -1.627911 0.489319 -27.543516 -17.113590 -1.642369 27.396631 -35.504813 -7.015655 0.000000 0.000000 0.000000 21.654494 -9.716376 -6.941461 52.189778 4.172424 -6.036929 10.648387 27.835232 3.888166 0.000000 0.000000 0.000000 
